<svg xmlns="http://www.w3.org/2000/svg" viewBox="0 0 212.16 50.03"><defs><style>.cls-1{fill:#424244;}</style></defs><title>2</title><g id="Layer_2" data-name="Layer 2"><g id="Layer_1-2" data-name="Layer 1"><path class="cls-1" d="M86.49,50H30.07A35.56,35.56,0,0,1,71.88,21.65c.72.63,1.42,1.27,2.1,2A43,43,0,0,1,86.49,50ZM87.55,0h-75A12.51,12.51,0,0,0,0,12.51v25a12.41,12.41,0,0,0,1.31,5.57A43,43,0,0,1,12.57,23.6a43.52,43.52,0,0,1,59.31-2A35.57,35.57,0,0,1,98.32,43.87a12.43,12.43,0,0,0,1.73-6.35v-25A12.5,12.5,0,0,0,87.55,0Zm33.24,19.43a5.62,5.62,0,0,1-5.06,2.85,5.38,5.38,0,0,1-4.14-1.75A6.71,6.71,0,0,1,110,15.84a6.7,6.7,0,0,1,1.59-4.67,5.19,5.19,0,0,1,4-1.77,5.06,5.06,0,0,1,4,1.75,6.81,6.81,0,0,1,1.56,4.69v.78h-8.5c.06,2,1.17,3.34,3,3.34a3,3,0,0,0,2.12-.74,5.45,5.45,0,0,0,1.1-1.33Zm-2.19-4.79a2.82,2.82,0,0,0-3-2.92,2.94,2.94,0,0,0-2.94,2.92Zm4.05,7.29V5.15h2.71V21.93Zm5.84-10.8a5.38,5.38,0,0,1,4-1.73,5.26,5.26,0,0,1,4,1.73,6.59,6.59,0,0,1,1.63,4.71,6.68,6.68,0,0,1-1.59,4.74,5.25,5.25,0,0,1-4,1.7,5.42,5.42,0,0,1-4.07-1.7,6.68,6.68,0,0,1-1.59-4.74A6.59,6.59,0,0,1,128.49,11.13Zm7.06,4.71c0-2.57-1.22-4.07-3-4.07s-3.06,1.47-3.06,4.07,1.22,4.07,3.06,4.07S135.55,18.42,135.55,15.84Zm6.19,7.2a3,3,0,0,0,3,2.11,2.5,2.5,0,0,0,2.74-2.78V20.81h-.05a3.82,3.82,0,0,1-3.15,1.47,5.06,5.06,0,0,1-3.93-1.73,6.77,6.77,0,0,1-1.54-4.71,6.73,6.73,0,0,1,1.59-4.69,5,5,0,0,1,3.84-1.75,3.86,3.86,0,0,1,3.28,1.52h.05V9.75h2.53V22a5.34,5.34,0,0,1-1.49,4.05,5.38,5.38,0,0,1-3.87,1.4,5.12,5.12,0,0,1-5-3.12Zm5.75-8.63a2.66,2.66,0,0,0-2.81-2.64c-2,0-3.24,1.47-3.24,4.07s1.24,4.07,3.24,4.07a2.63,2.63,0,0,0,2.81-2.55Zm4.81-6.66V5.15H155v2.6Zm0,14.18V9.75H155V21.93Zm15-4.3c-.48,2.95-2.27,4.65-5.15,4.65a5.38,5.38,0,0,1-4.07-1.7,6.72,6.72,0,0,1-1.58-4.74,6.74,6.74,0,0,1,1.58-4.67,5.28,5.28,0,0,1,4-1.77,4.87,4.87,0,0,1,5,4.51l-2.46.41c-.26-1.7-1.11-2.55-2.56-2.55-1.86,0-3,1.5-3,4.07s1.12,4.07,3,4.07c1.43,0,2.28-.94,2.56-2.83Zm-46.5,22c-.48,2.95-2.28,4.65-5.15,4.65a5.36,5.36,0,0,1-4.07-1.7A6.68,6.68,0,0,1,110,37.84a6.7,6.7,0,0,1,1.59-4.67,5.26,5.26,0,0,1,4-1.77,4.86,4.86,0,0,1,5,4.51l-2.46.41q-.37-2.55-2.55-2.55c-1.87,0-3.06,1.5-3.06,4.07s1.13,4.07,3.06,4.07c1.42,0,2.27-.94,2.55-2.83Zm2.21-6.5a5.36,5.36,0,0,1,4-1.73,5.23,5.23,0,0,1,4,1.73,6.59,6.59,0,0,1,1.63,4.71,6.72,6.72,0,0,1-1.58,4.74,5.29,5.29,0,0,1-4,1.7,5.44,5.44,0,0,1-4.07-1.7,6.67,6.67,0,0,1-1.58-4.74A6.59,6.59,0,0,1,123,33.13Zm7.06,4.71c0-2.57-1.22-4.07-3-4.07S124,35.24,124,37.84s1.22,4.07,3.06,4.07S130.08,40.42,130.08,37.84Zm4.07,6.09V31.75h2.39v1.17h.05a3.75,3.75,0,0,1,6.14.16h0A4,4,0,0,1,146,31.4c2.78,0,4.55,1.66,4.55,4.21v8.32h-2.41V36.21c0-1.59-.76-2.39-2.26-2.39a2.06,2.06,0,0,0-2.27,2.23v7.88h-2.44V36.21A2.1,2.1,0,0,0,139,33.82a2.08,2.08,0,0,0-2.28,2.23v7.88Zm18.63,0V31.75h2.39v1.17h.05a3.75,3.75,0,0,1,6.14.16h0a4,4,0,0,1,3.27-1.68c2.78,0,4.55,1.66,4.55,4.21v8.32h-2.41V36.21c0-1.59-.76-2.39-2.26-2.39a2.06,2.06,0,0,0-2.27,2.23v7.88h-2.44V36.21a2.1,2.1,0,0,0-2.23-2.39,2.08,2.08,0,0,0-2.28,2.23v7.88Zm28.61-2.5a5.61,5.61,0,0,1-5.06,2.85,5.38,5.38,0,0,1-4.14-1.75,6.71,6.71,0,0,1-1.59-4.69,6.7,6.7,0,0,1,1.59-4.67,5.19,5.19,0,0,1,4-1.77,5,5,0,0,1,4,1.75,6.82,6.82,0,0,1,1.57,4.69v.78h-8.51c.07,2,1.17,3.34,3,3.34a3,3,0,0,0,2.12-.74,5.23,5.23,0,0,0,1.1-1.33Zm-2.19-4.79a2.82,2.82,0,0,0-3-2.92,3,3,0,0,0-2.94,2.92Zm4.05,7.29V31.75h2.49V33h0a2.93,2.93,0,0,1,2.53-1.51,2.66,2.66,0,0,1,1.08.23L189,34.3a4.13,4.13,0,0,0-1-.18q-2.13,0-2.13,3v6.78Zm17.18-4.3c-.48,2.95-2.27,4.65-5.15,4.65a5.38,5.38,0,0,1-4.07-1.7,6.67,6.67,0,0,1-1.58-4.74,6.69,6.69,0,0,1,1.58-4.67,5.28,5.28,0,0,1,4-1.77,4.85,4.85,0,0,1,5,4.51l-2.46.41q-.37-2.55-2.55-2.55c-1.86,0-3.06,1.5-3.06,4.07s1.13,4.07,3.06,4.07c1.43,0,2.28-.94,2.55-2.83Zm11.36,1.8a5.59,5.59,0,0,1-5,2.85,5.38,5.38,0,0,1-4.14-1.75A6.71,6.71,0,0,1,201,37.84a6.7,6.7,0,0,1,1.59-4.67,5.19,5.19,0,0,1,4-1.77,5.06,5.06,0,0,1,4,1.75,6.86,6.86,0,0,1,1.56,4.69v.78h-8.5c.06,2,1.17,3.34,3,3.34a3,3,0,0,0,2.12-.74,5.45,5.45,0,0,0,1.1-1.33Zm-2.18-4.79a2.82,2.82,0,0,0-3-2.92,2.94,2.94,0,0,0-2.94,2.92Z"/></g></g></svg>